<?xml version="1.0" encoding="utf-8"?>
<!-- Generator: Adobe Illustrator 23.0.2, SVG Export Plug-In . SVG Version: 6.00 Build 0)  -->
<svg version="1.1" id="Layer_1" xmlns="http://www.w3.org/2000/svg" xmlns:xlink="http://www.w3.org/1999/xlink" x="0px" y="0px"
	 viewBox="0 0 671.8 617" style="enable-background:new 0 0 671.8 617;" xml:space="preserve">
<style type="text/css">
	.st0{fill:#19AAF8;}
</style>
<path id="Path_4127" class="st0" d="M340.2,188.9c9.4,1.6,11.8-0.8,12.5-9.4c2.4-14.1,7.1-37.6,18.8-61.1
	c12.5-25.9,32.9-54.1,60.4-72.9c23.5-15.7,61.9-33.7,92.5-40c22.1-4.9,44.8-6.5,67.4-4.7c40.8,3.9,62.7,14.9,73.7,29.8
	c3.9,5.5,6.3,12.5,6.3,17.2c0,7.1-3.1,17.2-13.3,26.7c-10.2,9.4-32.1,20.4-62.7,30.6c-31.4,10.2-74.5,21.2-116.8,31.4
	c-36.1,7.8-56.4,14.9-72.9,21.2c-28.2,9.4-36.8,37.6-18.8,46.3c19.7,9.8,38.1,21.9,54.9,36.1c20.4,16.5,43.9,36.1,72.9,71.3
	c26.7,32.1,69.8,94.1,85.4,154.4c17.2,65.8,6.3,128.6-30.6,145.8c-36.8,17.2-85.4-7.8-119.9-43.1c-32.9-33.7-55.7-73.7-76.8-134.8
	c-18.8-52.5-25.9-129.4-25.9-168.5v-28.2c1.6-10.2-26.7-18.8-57.2,0c-34.5,21.9-68.2,62.7-88.6,86.2c-8.6,10.2-20.4,25.1-32.9,40.8
	c-16.5,20.4-34.5,42.3-51,54.1c-25.1,18-65.1,25.9-93.3,5.5C8.6,412.3,0.8,391.1,0,369.9c0-14.9,3.1-29,11-42.3
	c9.4-16.5,25.1-34.5,49.4-54.1c25.1-21.2,65.9-44.7,106.6-60.4C228.9,188.9,295.5,181,340.2,188.9L340.2,188.9z"/>
</svg>
